# xmcd CD database file
#
# Track frame offsets:
#	150
#	14742
#	29310
#	43307
#	57010
#	69525
#	84070
#	97337
#	110935
#	123965
#	137205
#	151587
#	167130
#	180375
#	196935
#	213397
#	228700
#	243845
#	256807
#	270812
#	286550
#	298062
#	312627
#	327452
#
# Disc length: 4546 seconds
#
# Revision: 0
# Processed by: cddbd v1.5.2PL0 Copyright (c) Steve Scherf et al.
# Submitted via: CDex 1.70beta2
#
DISCID=5b11c018
DTITLE=Bing Crosby - Ol' Man River
DYEAR=2000
DGENRE=Jazz
TTITLE0=Muddy Water
TTITLE1=I'm Coming Virginia
TTITLE2=Side By Side
TTITLE3=That' Grandam
TTITLE4=Mary
TTITLE5=Ol' Man River
TTITLE6=Make Believe
TTITLE7=Lovable
TTITLE8=I'm Araid Of You
TTITLE9=You Took Advantage Of Me
TTITLE10=It Must Be True
TTITLE11=Fool Me Some More
TTITLE12=The Little Thing In Life
TTITLE13=I Surrender,Dear
TTITLE14=Them There Eyes
TTITLE15=Wrap Your Troubles In Dreams
TTITLE16=Jast A Gigolo
TTITLE17=One More Time
TTITLE18=Three Little Words
TTITLE19=Thanks To You
TTITLE20=I'm Gonna Get You
TTITLE21=I'm Through With Love
TTITLE22=Just One More Chance
TTITLE23=Ho Hum!
EXTD=YEAR: 2000
EXTT0=
EXTT1=
EXTT2=
EXTT3=
EXTT4=
EXTT5=
EXTT6=
EXTT7=
EXTT8=
EXTT9=
EXTT10=
EXTT11=
EXTT12=
EXTT13=
EXTT14=
EXTT15=
EXTT16=
EXTT17=
EXTT18=
EXTT19=
EXTT20=
EXTT21=
EXTT22=
EXTT23=
PLAYORDER=
